<?xml version="1.0" standalone="no"?>
<!DOCTYPE svg PUBLIC "-//W3C//DTD SVG 20010904//EN"
 "http://www.w3.org/TR/2001/REC-SVG-20010904/DTD/svg10.dtd">
<svg version="1.0" xmlns="http://www.w3.org/2000/svg"
 width="512.000000pt" height="512.000000pt" viewBox="0 0 512.000000 512.000000"
 preserveAspectRatio="xMidYMid meet">

<g transform="translate(0.000000,512.000000) scale(0.100000,-0.100000)"
fill="#000000" stroke="none">
<path d="M514 5101 c-25 -12 -50 -33 -65 -57 l-24 -39 -3 -693 c-2 -476 1
-706 8 -733 6 -22 26 -56 43 -74 29 -31 1936 -1430 2010 -1475 43 -27 112 -26
157 1 79 49 2001 1462 2020 1486 11 14 25 43 30 64 7 25 10 278 8 731 l-3 693
-24 39 c-42 67 -132 94 -201 58 -19 -9 -454 -324 -967 -700 -512 -375 -936
-682 -942 -682 -7 0 -431 307 -943 682 -513 375 -948 690 -967 700 -45 23 -85
22 -137 -1z m1099 -1093 c535 -392 878 -637 905 -646 36 -12 48 -12 85 0 26 9
366 251 905 646 474 348 865 632 867 632 3 0 5 -211 5 -469 l0 -469 -37 -30
c-72 -56 -1766 -1294 -1777 -1298 -6 -2 -418 294 -916 659 l-905 662 -3 473
c-1 259 0 472 3 472 3 0 393 -284 868 -632z"/>
<path d="M514 3096 c-39 -17 -71 -58 -84 -107 -7 -25 -10 -278 -8 -731 3 -678
3 -694 23 -728 16 -26 260 -210 925 -698 498 -364 956 -699 1017 -743 119 -86
163 -102 221 -81 36 12 2005 1450 2044 1492 15 16 32 47 38 69 7 27 10 262 8
733 -3 672 -4 694 -23 727 -11 19 -32 43 -47 54 -35 26 -117 34 -155 15 -15
-8 -449 -322 -963 -698 -514 -376 -941 -684 -950 -684 -8 0 -409 288 -890 640
-481 352 -908 665 -949 694 -62 45 -82 54 -125 57 -30 2 -64 -3 -82 -11z
m1114 -1106 l867 -635 65 0 65 0 440 322 c242 177 634 464 870 637 237 173
433 316 438 316 4 0 6 -212 5 -472 l-3 -471 -600 -439 c-330 -242 -738 -541
-907 -664 l-308 -225 -652 477 c-359 263 -769 563 -910 667 l-258 188 0 470
c0 324 3 470 10 467 6 -2 401 -289 878 -638z"/>
</g>
</svg>
